<svg width="202" height="34" viewBox="0 0 202 34" fill="none" xmlns="http://www.w3.org/2000/svg">
<g clip-path="url(#clip0)">
<path d="M51.212 2.01052V3.24977H61.2536C61.923 3.24977 62.9272 3.24977 63.5966 3.95827C64.266 4.66678 64.266 5.72933 64.266 6.43762V17.0622C64.266 17.771 64.266 18.8333 63.5966 19.5418C62.9272 20.2501 61.923 20.2501 61.2536 20.2501H56.4002C55.5634 20.2501 54.4754 20.2501 54.0572 19.2762C53.6388 18.3021 54.2244 17.4167 54.7266 16.7084L61.2536 7.50038H51.212L47.1954 13.1667C46.5225 14.1157 45.9402 14.9376 45.9402 16.0001C45.9402 17.0622 46.4824 17.8276 47.1954 18.8333L48.1996 20.2501C49.2036 21.6667 50.2078 23.0833 51.5468 23.7918C52.8856 24.5001 54.4754 24.5001 56.6512 24.5001H61.0026C63.513 24.5001 67.2786 24.5001 69.789 21.8438C72.2994 19.1875 72.2994 15.2918 72.2994 13.875V9.62505C72.2994 8.20846 72.2994 4.31253 69.789 1.65627C67.2786 -0.999993 63.513 -0.996772 61.0026 -0.997631L54.0572 -0.999993C53.3876 -1.00021 52.5508 -0.999993 51.8814 -0.29127C51.212 0.417023 51.212 1.30244 51.212 2.01052Z" fill="#C4151C"/>
<path d="M39.1622 8.49994H49.2037L37.1538 25.5H27.1124L39.1622 8.49994Z" fill="#C4151C"/>
<path d="M0 11.5105C0 10.8022 0 9.91674 0.669399 9.20845C1.3388 8.50015 2.1756 8.50015 2.8452 8.50015H19.6648C21.8404 8.50015 23.4304 8.50015 24.7692 9.20845C26.108 9.91674 27.1122 11.3331 28.1164 12.7501L29.1206 14.1667C29.8334 15.1726 30.3758 15.9376 30.3758 17.0001C30.3758 18.0622 29.7932 18.8841 29.1206 19.8333L25.104 25.4998H15.0624L21.5894 16.2916C22.0914 15.5833 22.6772 14.6977 22.2588 13.7238C21.8404 12.7501 20.7526 12.7501 19.9158 12.7501H12.05V34H4.0166V12.7503H0V11.5105Z" fill="#C4151C"/>
<path d="M81.8404 22.4402C81.2377 23.3073 80.6233 24.1614 80.0209 25.0157V25.5003H81.7198C82.5514 24.3274 82.9852 23.7153 82.9852 23.0138H84.648V25.5003H86.2386V23.0136H87.9015C87.9015 23.715 88.3353 24.3271 89.1666 25.5001H90.8658V25.0155L89.0341 22.4399C90.5766 21.2159 90.5766 21.2159 90.5766 19.6091V19.0739H88.8414V19.6093C88.8414 21.5601 88.8413 21.5601 87.0338 21.5601H86.2386V19.0739H84.648V21.5601H83.8528C82.0451 21.5601 82.0451 21.5601 82.0451 19.6093V19.0739H80.31V19.6093C80.31 21.2159 80.31 21.2159 81.8404 22.4402Z" fill="white"/>
<path fill-rule="evenodd" clip-rule="evenodd" d="M93.8782 21.7136C93.8782 20.2979 93.8782 20.2979 95.3602 20.2979C96.8425 20.2979 96.8425 20.2979 96.8425 21.7136H93.8782ZM93.8782 22.861H95.3602C96.9147 22.8481 97.3727 22.8738 97.8909 22.7461L98.5053 22.5932V21.9687C98.5053 20.9102 98.5053 18.9212 95.6496 18.9212H95.0711C92.2153 18.9212 92.2153 20.9104 92.2153 21.9811V22.5935C92.2153 23.741 92.2393 25.6533 95.3844 25.6533C95.8543 25.6533 96.9147 25.6533 98.0717 25.3474V23.9705H97.7462L96.5895 24.2765H95.3602C93.8782 24.2761 93.8782 24.276 93.8782 22.861Z" fill="white"/>
<path d="M101.192 19.0743C101.192 20.0435 101.12 22.9627 99.6741 25.0028V25.5001H101.445C102.494 24.021 102.494 22.0958 102.494 20.4892H104.988V25.5001H106.579V19.0741H101.192" fill="white"/>
<path fill-rule="evenodd" clip-rule="evenodd" d="M110.242 21.7136C110.242 20.2979 110.242 20.2979 111.724 20.2979C113.206 20.2979 113.206 20.2979 113.206 21.7136H110.242ZM110.242 22.861H111.724C113.278 22.8481 113.736 22.8738 114.255 22.7461L114.869 22.5932V21.9687C114.869 20.9102 114.869 18.9212 112.013 18.9212H111.435C108.579 18.9212 108.579 20.9104 108.579 21.9811V22.5935C108.579 23.741 108.603 25.6533 111.748 25.6533C112.218 25.6533 113.278 25.6533 114.435 25.3474V23.9705H114.11L112.953 24.2765H111.724C110.242 24.2761 110.242 24.276 110.242 22.861Z" fill="white"/>
<path d="M120.713 22.3891V22.1978C121.942 21.8663 121.942 21.0631 121.942 20.7571C121.942 20.1448 121.942 18.9208 119.014 18.9208C118.58 18.9208 117.568 18.9208 116.411 19.227V20.604H116.736L117.893 20.2979H119.231C120.158 20.2979 120.207 20.2979 120.207 21.0118C120.207 21.7134 120.207 21.7134 119.231 21.7134H117.893V22.8608H119.231C120.158 22.8608 120.207 22.8608 120.207 23.5622C120.207 24.2763 120.207 24.2763 119.231 24.2763H117.893L116.736 23.9701H116.411V25.3472C117.568 25.6529 118.58 25.6529 119.014 25.6529C121.93 25.6529 121.942 24.4291 121.942 23.817C121.942 23.5113 121.942 22.7081 120.713 22.3891Z" fill="white"/>
<path d="M128.557 19.0743V21.5603H125.376V19.0743H123.785V25.5H125.376V23.0138H128.557V25.5H130.148V19.0743H128.557Z" fill="white"/>
<path fill-rule="evenodd" clip-rule="evenodd" d="M135.173 22.2873C136.438 22.2873 136.438 22.2873 136.438 23.2818C136.438 24.2765 136.438 24.2765 135.173 24.2765H133.907V22.2873H135.173ZM140.848 19.0743H139.257V25.5003H140.848V19.0743ZM135.389 25.5001C137.305 25.5001 138.1 25.0537 138.1 23.3198C138.1 22.3635 138.1 20.9864 135.606 20.9864C135.245 20.9864 134.63 21.0251 133.907 21.2162V19.0741H132.316V25.5001H135.389Z" fill="white"/>
<path fill-rule="evenodd" clip-rule="evenodd" d="M144.439 21.7136C144.439 20.2979 144.439 20.2979 145.921 20.2979C147.403 20.2979 147.403 20.2979 147.403 21.7136H144.439ZM144.439 22.861H145.921C147.475 22.8481 147.933 22.8738 148.452 22.7461L149.066 22.5932V21.9687C149.066 20.9102 149.066 18.9212 146.21 18.9212H145.632C142.776 18.9212 142.776 20.9104 142.776 21.9811V22.5935C142.776 23.741 142.8 25.6533 145.945 25.6533C146.415 25.6533 147.475 25.6533 148.632 25.3474V23.9705H148.307L147.15 24.2765H145.921C144.439 24.2761 144.439 24.276 144.439 22.861Z" fill="white"/>
<path fill-rule="evenodd" clip-rule="evenodd" d="M155.693 22.0576C155.693 20.3363 155.693 20.3747 157.85 20.3747C158.139 20.3747 158.537 20.4127 159.019 20.5276V23.2816L157.476 23.6893C155.693 23.6895 155.693 23.6895 155.693 22.0576ZM154.753 26.4945V27.948C155.91 28.2542 156.85 28.2542 157.211 28.2542C160.489 28.2542 160.597 26.7498 160.609 25.041V19.0743H160.091L159.32 19.6864C158.79 18.9594 157.5 18.9339 157.091 18.9339C154.03 18.9339 154.03 20.974 154.03 21.9047V22.2109C154.03 23.2818 154.03 25.0412 156.633 25.0412C157.416 25.0412 158.344 24.8119 159.018 24.2763V24.8117C159.018 26.788 158.982 26.8009 157.066 26.8009H156.235L155.078 26.4947H154.753V26.4945Z" fill="white"/>
<path fill-rule="evenodd" clip-rule="evenodd" d="M165.441 18.921C162.369 18.921 162.369 20.8336 162.369 21.9811V22.5932C162.369 23.7408 162.369 25.6531 165.441 25.6531H166.02C169.093 25.6531 169.093 23.7408 169.093 22.5932V21.9811C169.093 20.8336 169.093 18.921 166.02 18.921H165.441ZM165.731 20.3365C167.43 20.3365 167.43 20.3365 167.43 22.2873C167.43 24.2381 167.43 24.2381 165.731 24.2381C164.031 24.2381 164.031 24.2381 164.031 22.2873C164.031 20.3365 164.031 20.3365 165.731 20.3365Z" fill="white"/>
<path fill-rule="evenodd" clip-rule="evenodd" d="M175.768 22.2873C175.768 24.1996 175.768 24.1996 173.997 24.1996C173.563 24.1996 173.008 24.1996 172.442 24.0465V20.8336L173.985 20.4258C175.768 20.4258 175.768 20.4512 175.768 22.2873ZM170.852 19.0743V28.1014H172.442V25.309C173.165 25.5003 173.744 25.6531 174.611 25.6531C177.431 25.6531 177.431 23.4731 177.431 22.5935V21.9811C177.431 20.9102 177.431 18.921 174.792 18.921C173.443 18.921 172.659 19.546 172.225 19.8902L171.647 19.0743H170.852Z" fill="white"/>
<path fill-rule="evenodd" clip-rule="evenodd" d="M182.214 18.921C179.142 18.921 179.142 20.8336 179.142 21.9811V22.5932C179.142 23.7408 179.142 25.6531 182.214 25.6531H182.793C185.866 25.6531 185.866 23.7408 185.866 22.5932V21.9811C185.866 20.8336 185.866 18.921 182.793 18.921H182.214ZM182.504 20.3365C184.203 20.3365 184.203 20.3365 184.203 22.2873C184.203 24.2381 184.203 24.2381 182.504 24.2381C180.804 24.2381 180.804 24.2381 180.804 22.2873C180.804 20.3365 180.804 20.3365 182.504 20.3365Z" fill="white"/>
<path d="M190.456 18.921C189.878 18.921 189.119 18.921 187.962 19.2272V20.604H188.287L189.444 20.2981H190.926C191.722 20.2981 191.722 20.2981 191.722 20.7827C191.722 21.1144 191.722 21.2164 191.107 21.331L189.661 21.7136C188.829 21.9302 187.673 22.2617 187.673 23.5877C187.673 24.4673 187.673 25.6529 190.601 25.6529C191.179 25.6529 191.939 25.6529 193.095 25.3472V23.9701H192.77C192.288 24.1103 191.83 24.225 191.649 24.2763H190.131C189.336 24.2763 189.336 24.2763 189.336 23.7915C189.336 23.4984 189.336 23.4346 189.673 23.3327L190.481 23.1031L191.396 22.8608C192.228 22.6441 193.384 22.3255 193.384 20.9866C193.384 20.1068 193.384 18.921 190.456 18.921Z" fill="white"/>
<path d="M200.819 25.6789L202 24.7479C201.566 24.1358 201.566 24.1358 201.566 23.0523V19.0743H199.976V23.7406L198.433 24.1485C196.794 24.1485 196.794 24.1485 196.794 22.3764V19.0743H195.203V22.6312C195.203 23.8934 195.203 25.6529 197.626 25.6529C198.891 25.6529 199.674 25.0283 200.108 24.6842L200.819 25.6789Z" fill="white"/>
<path fill-rule="evenodd" clip-rule="evenodd" d="M80.3325 3.7233V12.7501H82.0676V10.2639H83.4413C85.791 10.2639 87.6346 10.2639 87.6346 6.99982C87.6346 3.7233 85.791 3.7233 83.4413 3.7233H80.3325ZM82.0676 8.6573V5.32946H84.1643C85.7188 5.32946 85.791 5.32946 85.791 6.99961C85.791 8.61887 85.791 8.6573 84.1643 8.6573H82.0676Z" fill="white"/>
<path fill-rule="evenodd" clip-rule="evenodd" d="M92.0329 6.1709C88.9601 6.1709 88.9601 8.08344 88.9601 9.23101V9.84312C88.9601 10.9907 88.9601 12.903 92.0329 12.903H92.6112C95.6841 12.903 95.6841 10.9907 95.6841 9.84312V9.23101C95.6841 8.08344 95.6841 6.1709 92.6112 6.1709H92.0329ZM92.3221 7.5862C94.0213 7.5862 94.0213 7.5862 94.0213 9.53695C94.0213 11.4877 94.0213 11.4877 92.3221 11.4877C90.6229 11.4877 90.6229 11.4877 90.6229 9.53695C90.6229 7.5862 90.6229 7.5862 92.3221 7.5862Z" fill="white"/>
<path d="M100.419 12.9032C100.853 12.9032 101.974 12.9032 103.131 12.597V11.2204H102.805L101.636 11.5263H100.95C98.9371 11.5263 98.9371 11.5263 98.9371 9.53714C98.9371 7.54795 98.9371 7.54795 100.419 7.54795C101.673 7.54795 101.673 7.54795 101.974 8.81038L103.42 8.42779C103.42 7.81589 103.42 6.17108 100.709 6.17108H100.13C97.2743 6.17108 97.2743 8.08362 97.2743 9.23098V9.8433C97.2743 10.9907 97.2743 12.9032 100.419 12.9032Z" fill="white"/>
<path d="M108.059 12.9032C108.493 12.9032 109.613 12.9032 110.77 12.597V11.2204H110.445L109.276 11.5263H108.589C106.577 11.5263 106.577 11.5263 106.577 9.53714C106.577 7.54795 106.577 7.54795 108.059 7.54795C109.312 7.54795 109.312 7.54795 109.613 8.81038L111.059 8.42779C111.059 7.81589 111.059 6.17108 108.348 6.17108H107.77C104.914 6.17108 104.914 8.08362 104.914 9.23098V9.8433C104.914 10.9907 104.914 12.9032 108.059 12.9032Z" fill="white"/>
<path d="M118.301 12.9288L119.482 11.9976C119.048 11.3857 119.048 11.3857 119.048 10.3021V6.32397H117.457V10.9905L115.915 11.3982C114.276 11.3982 114.276 11.3982 114.276 9.62605V6.32397H112.686V9.88111C112.686 11.1433 112.686 12.9028 115.108 12.9028C116.373 12.9028 117.156 12.2782 117.59 11.9339L118.301 12.9288Z" fill="white"/>
<path fill-rule="evenodd" clip-rule="evenodd" d="M123.892 4.02904C123.109 4.02904 123.109 4.02904 122.723 3.56979L122.025 4.1439C122.784 5.1766 123.169 5.25325 124.278 5.25325H124.543C125.639 5.25325 126.037 5.1766 126.784 4.1439L126.085 3.56979C125.712 4.02904 125.712 4.02904 124.916 4.02904H123.892ZM126.832 12.9288L128.013 11.9976C127.579 11.3857 127.579 11.3857 127.579 10.3021V6.32396H125.989V10.9904L124.446 11.3982C122.844 11.3982 122.807 11.3982 122.807 9.62603V6.32396H121.217V9.88109C121.217 11.1433 121.217 12.9028 123.639 12.9028C124.904 12.9028 125.687 12.2782 126.121 11.9338L126.832 12.9288Z" fill="white"/>
<path d="M132.761 12.9032C133.195 12.9032 134.315 12.9032 135.472 12.597V11.2204H135.146L133.978 11.5263H133.291C131.278 11.5263 131.278 11.5263 131.278 9.53714C131.278 7.54795 131.278 7.54795 132.761 7.54795C134.014 7.54795 134.014 7.54795 134.315 8.81038L135.761 8.42779C135.761 7.81589 135.761 6.17108 133.05 6.17108H132.471C129.615 6.17108 129.615 8.08362 129.615 9.23098V9.8433C129.616 10.9907 129.616 12.9032 132.761 12.9032Z" fill="white"/>
<path d="M137.545 6.32397V12.7501H139.135V10.2639H141.087C141.087 10.9651 141.521 11.577 142.352 12.7501H144.051V12.2656L142.22 9.69003C143.762 8.46624 143.762 8.46624 143.762 6.85943V6.32397H142.027V6.85943C142.027 8.81019 142.027 8.81019 140.22 8.81019H139.135V6.32397H137.545Z" fill="white"/>
<path d="M151.269 12.9288L152.45 11.9976C152.016 11.3857 152.016 11.3857 152.016 10.3021V6.32397H150.426V10.9905L148.883 11.3982C147.244 11.3982 147.244 11.3982 147.244 9.62605V6.32397H145.654V9.88111C145.654 11.1433 145.654 12.9028 148.076 12.9028C149.341 12.9028 150.125 12.2782 150.558 11.9339L151.269 12.9288Z" fill="white"/>
<path fill-rule="evenodd" clip-rule="evenodd" d="M155.595 8.96349C155.595 7.54798 155.595 7.54798 157.077 7.54798C158.559 7.54798 158.559 7.54798 158.559 8.96349H155.595ZM155.595 10.1111H157.077C158.632 10.0982 159.089 10.1239 159.608 9.99619L160.222 9.84333V9.21877C160.222 8.16009 160.222 6.17133 157.366 6.17133H156.788C153.932 6.17133 153.932 8.1603 153.932 9.23122V9.84354C153.932 10.9911 153.956 12.9034 157.101 12.9034C157.571 12.9034 158.632 12.9034 159.788 12.5973V11.2206H159.463L158.306 11.5266H157.077C155.595 11.5264 155.595 11.5264 155.595 10.1111Z" fill="white"/>
</g>
<defs>
<clipPath id="clip0">
<rect width="202" height="34" fill="white"/>
</clipPath>
</defs>
</svg>
